<svg version="1.1" id="Layer_1" xmlns="http://www.w3.org/2000/svg" xmlns:xlink="http://www.w3.org/1999/xlink" x="0px" y="0px"
	 viewBox="0 0 39.4 32" enable-background="new 0 0 39.4 32" xml:space="preserve">
<path fill="#55ACEE" d="M39.4,3.8c-1.4,0.6-3,1.1-4.6,1.3c1.7-1,2.9-2.6,3.6-4.5c-1.6,0.9-3.3,1.6-5.1,2C31.7,1,29.6,0,27.3,0
	c-4.5,0-8.1,3.6-8.1,8.1c0,0.6,0.1,1.2,0.2,1.8C12.7,9.6,6.7,6.4,2.7,1.5C2,2.7,1.6,4.1,1.6,5.5c0,2.8,1.4,5.3,3.6,6.7
	c-1.3,0-2.6-0.4-3.7-1c0,0,0,0.1,0,0.1c0,3.9,2.8,7.2,6.5,7.9c-0.7,0.2-1.4,0.3-2.1,0.3c-0.5,0-1-0.1-1.5-0.1c1,3.2,4,5.5,7.5,5.6
	c-2.8,2.2-6.2,3.5-10,3.5c-0.7,0-1.3,0-1.9-0.1C3.6,30.7,7.8,32,12.4,32c14.9,0,23-12.3,23-23c0-0.4,0-0.7,0-1
	C36.9,6.8,38.3,5.4,39.4,3.8z"/>
</svg>
